<!-- icon666.com - MILLIONS OF FREE VECTOR ICONS --><svg viewBox="-10 0 452 452.13843" xmlns="http://www.w3.org/2000/svg"><path d="m303.410156 22.355469c-1.949218 23.128906-26.050781 26.777343-26.050781 26.777343 20.695313.976563 25.851563 28.121094 25.851563 28.121094.441406-19.355468 26.640624-28.40625 26.640624-28.40625-19.625-1.171875-26.441406-26.492187-26.441406-26.492187zm0 0" fill="#d7e057"></path><path d="m330.03125 45.855469c-17.210938-1.03125-23.664062-24.050781-23.726562-24.28125-.382813-1.40625-1.726563-2.332031-3.167969-2.207031-1.449219.132812-2.59375 1.285156-2.714844 2.734374-1.722656 20.433594-22.628906 23.929688-23.507813 24.066407-1.527343.230469-2.628906 1.582031-2.546874 3.121093.078124 1.539063 1.3125 2.769532 2.851562 2.839844 18.058594.855469 23 25.441406 23.046875 25.6875.273437 1.425782 1.519531 2.4375 2.945313 2.4375.082031 0 .167968-.003906.25-.011718 1.527343-.128907 2.714843-1.386719 2.75-2.917969.390624-17.019531 24.382812-25.554688 24.625-25.640625 1.351562-.46875 2.183593-1.828125 1.988281-3.242188-.195313-1.417968-1.363281-2.5-2.792969-2.585937zm-27.132812 20.691406c-2.710938-6.261719-7.414063-13.816406-15.171876-17.753906 5.863282-2.808594 12.820313-7.828125 16.40625-16.546875 3.101563 6.140625 8.398438 13.761718 16.667969 17.445312-6.015625 3.28125-13.847656 8.8125-17.902343 16.855469zm0 0" fill="#3a312a"></path><path d="m260.011719 56.320312c-1.378907 16.355469-18.421875 18.9375-18.421875 18.9375 14.632812.691407 18.28125 19.886719 18.28125 19.886719.3125-13.6875 18.84375-20.089843 18.84375-20.089843-13.878906-.828126-18.703125-18.734376-18.703125-18.734376zm0 0" fill="#d7e057"></path><path d="m278.894531 72.0625c-11.53125-.691406-15.945312-16.375-15.988281-16.53125-.378906-1.40625-1.707031-2.335938-3.164062-2.203125-1.453126.128906-2.597657 1.285156-2.71875 2.734375-1.160157 13.742188-15.292969 16.132812-15.886719 16.226562-1.523438.230469-2.625 1.582032-2.542969 3.121094.078125 1.539063 1.3125 2.769532 2.851562 2.839844 12.070313.570312 15.449219 17.289062 15.480469 17.453125.269531 1.425781 1.515625 2.441406 2.941407 2.441406.085937 0 .167968-.003906.25-.011719 1.53125-.125 2.71875-1.382812 2.753906-2.921874.257812-11.417969 16.660156-17.265626 16.824218-17.320313 1.351563-.464844 2.1875-1.828125 1.992188-3.246094-.195312-1.414062-1.363281-2.496093-2.792969-2.582031zm-19.167969 13.589844c-1.847656-3.773438-4.679687-7.894532-8.894531-10.558594 3.710938-2.082031 7.394531-5.261719 9.742188-9.835938 2.113281 3.75 5.308593 7.910157 9.882812 10.449219-3.699219 2.203125-7.980469 5.480469-10.730469 9.945313zm0 0" fill="#3a312a"></path><path d="m260.011719 3.003906c-1.378907 16.355469-18.421875 18.9375-18.421875 18.9375 14.632812.6875 18.28125 19.890625 18.28125 19.890625.3125-13.691406 18.84375-20.089843 18.84375-20.089843-13.878906-.832032-18.703125-18.738282-18.703125-18.738282zm0 0" fill="#d7e057"></path><path d="m278.894531 18.75c-11.53125-.695312-15.945312-16.375-15.988281-16.535156-.378906-1.402344-1.707031-2.335938-3.164062-2.2031252-1.453126.1289062-2.597657 1.2851562-2.71875 2.7382812-1.160157 13.742188-15.292969 16.128906-15.886719 16.222656-1.523438.234375-2.625 1.582032-2.542969 3.125.078125 1.539063 1.3125 2.769532 2.851562 2.839844 12.070313.570312 15.449219 17.289062 15.480469 17.453125.269531 1.425781 1.515625 2.441406 2.945313 2.441406.082031 0 .164062-.003906.246094-.011719 1.53125-.125 2.71875-1.386718 2.753906-2.921874.257812-11.417969 16.660156-17.265626 16.824218-17.320313 1.351563-.46875 2.1875-1.828125 1.992188-3.246094-.195312-1.414062-1.363281-2.496093-2.792969-2.582031zm-19.167969 13.585938c-1.847656-3.769532-4.679687-7.894532-8.894531-10.558594 3.710938-2.082032 7.394531-5.257813 9.742188-9.832032 2.113281 3.746094 5.308593 7.910157 9.882812 10.449219-3.699219 2.199219-7.980469 5.476563-10.730469 9.941407zm0 0" fill="#3a312a"></path><path d="m426.199219 218.128906-45.785157-79.304687c-2.902343-5.03125-8.273437-8.128907-14.082031-8.128907h-91.570312c-5.808594 0-11.179688 3.097657-14.082031 8.128907l-45.789063 79.304687c-2.902344 5.03125-2.902344 11.230469 0 16.257813l45.789063 79.304687c2.902343 5.03125 8.273437 8.132813 14.082031 8.132813h91.570312c5.808594 0 11.179688-3.101563 14.082031-8.132813l45.785157-79.304687c2.90625-5.027344 2.90625-11.226563 0-16.257813zm0 0" fill="#d7e057"></path><path d="m428.796875 216.628906-45.785156-79.304687c-3.429688-5.941407-9.820313-9.628907-16.679688-9.628907h-38.410156c-1.660156 0-3 1.34375-3 3s1.339844 3 3 3h38.410156c4.722657 0 9.121094 2.542969 11.484375 6.628907l45.785156 79.304687c2.363282 4.089844 2.363282 9.171875.003907 13.257813l-45.789063 79.304687c-2.359375 4.089844-6.761718 6.632813-11.480468 6.632813h-91.574219c-4.722657 0-9.125-2.542969-11.484375-6.632813l-45.789063-79.304687c-2.359375-4.085938-2.359375-9.167969 0-13.257813l45.789063-79.304687c2.359375-4.089844 6.761718-6.628907 11.484375-6.628907h27.425781c1.65625 0 3-1.34375 3-3s-1.34375-3-3-3h-27.425781c-6.863281 0-13.253907 3.6875-16.679688 9.628907l-45.789062 79.304687c-3.429688 5.941406-3.429688 13.320313 0 19.257813l45.785156 79.304687c3.429687 5.941406 9.820313 9.632813 16.679687 9.632813h91.574219c6.859375 0 13.25-3.691407 16.679688-9.632813l45.785156-79.304687c3.429687-5.9375 3.429687-13.316407 0-19.257813zm0 0" fill="#3a312a"></path><path d="m340.722656 175.097656v41.628906h-40.34375v-41.628906h-24.59375v108.335938h24.59375v-45.328125h40.34375v45.328125h24.429688v-108.335938zm0 0" fill="#87796f"></path><path d="m365.152344 172.097656h-24.429688c-1.660156 0-3 1.34375-3 3v38.628906h-34.34375v-38.628906c0-1.65625-1.34375-3-3-3h-24.59375c-1.65625 0-3 1.34375-3 3v108.335938c0 1.65625 1.34375 3 3 3h24.59375c1.65625 0 3-1.34375 3-3v-42.328125h34.34375v42.328125c0 1.65625 1.339844 3 3 3h24.429688c1.660156 0 3-1.34375 3-3v-108.335938c0-1.65625-1.339844-3-3-3zm-3 108.335938h-18.429688v-42.328125c0-1.65625-1.34375-3-3-3h-40.34375c-1.660156 0-3 1.34375-3 3v42.328125h-18.59375v-102.335938h18.59375v38.628906c0 1.65625 1.339844 3 3 3h40.34375c1.65625 0 3-1.34375 3-3v-38.628906h18.429688zm0 0" fill="#3a312a"></path><path d="m216.550781 345.445312-45.785156-79.304687c-2.90625-5.03125-8.273437-8.132813-14.082031-8.132813h-91.574219c-5.8125 0-11.179687 3.101563-14.082031 8.128907l-45.789063 79.308593c-2.902343 5.03125-2.902343 11.230469 0 16.257813l19.613281 33.96875 13.761719 23.835937 12.414063 21.5c2.902344 5.03125 8.269531 8.128907 14.082031 8.128907h91.570313c5.808593 0 11.179687-3.097657 14.082031-8.128907l45.785156-79.304687c2.90625-5.03125 2.90625-11.230469.003906-16.257813zm0 0" fill="#8ac6dd"></path><path d="m219.144531 343.945312-45.785156-79.304687c-3.429687-5.941406-9.820313-9.628906-16.679687-9.628906h-91.570313c-6.859375 0-13.25 3.6875-16.679687 9.628906l-45.789063 79.304687c-3.429687 5.941407-3.429687 13.320313 0 19.257813l19.613281 33.96875c.828125 1.433594 2.660156 1.925781 4.097656 1.097656 1.433594-.828125 1.925782-2.664062 1.097657-4.097656l-19.613281-33.96875c-2.359376-4.085937-2.359376-9.167969 0-13.257813l45.785156-79.304687c2.363281-4.089844 6.765625-6.628906 11.484375-6.628906h91.574219c4.722656 0 9.121093 2.539062 11.484374 6.628906l45.785157 79.304687c2.359375 4.089844 2.359375 9.171876 0 13.257813l-45.785157 79.304687c-2.363281 4.089844-6.761718 6.628907-11.484374 6.628907h-91.570313c-4.722656 0-9.125-2.539063-11.484375-6.628907l-12.414062-21.5c-.828126-1.433593-2.660157-1.925781-4.097657-1.097656-1.433593.828125-1.925781 2.664063-1.097656 4.097656l12.414063 21.5c3.429687 5.941407 9.820312 9.628907 16.679687 9.628907h91.570313c6.859374 0 13.253906-3.6875 16.679687-9.628907l45.785156-79.304687c3.433594-5.9375 3.433594-13.320313 0-19.257813zm0 0" fill="#3a312a"></path><path d="m121.589844 390.101562c-21.863282 0-34.71875-13.664062-34.71875-35.363281 0-24.109375 15.109375-35.84375 34.558594-35.84375 8.679687 0 15.589843 1.929688 20.574218 4.019531l4.980469-19.449218c-4.339844-2.253906-13.980469-4.824219-26.679687-4.824219-32.789063 0-59.152344 20.574219-59.152344 57.542969 0 30.863281 19.289062 54.167968 56.742187 54.167968 13.179688 0 23.304688-2.410156 27.808594-4.660156l-3.699219-19.128906c-4.824218 1.933594-13.023437 3.539062-20.414062 3.539062zm0 0" fill="#87796f"></path><path d="m121.429688 321.894531c6.886718 0 13.421874 1.273438 19.414062 3.785157.800781.332031 1.710938.304687 2.496094-.082032.777344-.386718 1.351562-1.09375 1.570312-1.941406l4.980469-19.449219c.347656-1.351562-.285156-2.761719-1.523437-3.40625-4.585938-2.378906-14.6875-5.160156-28.0625-5.160156-37.175782 0-62.152344 24.332031-62.152344 60.542969 0 35.261718 22.890625 57.167968 59.742187 57.167968 14.167969 0 24.558594-2.679687 29.148438-4.976562 1.207031-.605469 1.859375-1.933594 1.601562-3.253906l-3.695312-19.125c-.171875-.878906-.722657-1.636719-1.507813-2.0625-.789062-.429688-1.722656-.488282-2.554687-.152344-3.996094 1.597656-11.742188 3.320312-19.296875 3.320312-19.863282 0-31.71875-12.097656-31.71875-32.363281 0-20.566406 11.796875-32.84375 31.558594-32.84375zm-37.558594 32.84375c0 23.664063 14.453125 38.363281 37.71875 38.363281 5.917968 0 12.757812-1 18.121094-2.582031l2.582031 13.367188c-4.984375 1.839843-13.789063 3.46875-24.402344 3.46875-33.148437 0-53.742187-19.605469-53.742187-51.167969 0-32.625 22.566406-54.542969 56.152343-54.542969 9.863281 0 18.242188 1.652344 23.148438 3.535157l-3.519531 13.738281c-5.820313-2.007813-12.027344-3.023438-18.503907-3.023438-23.164062 0-37.554687 14.886719-37.554687 38.84375zm0 0" fill="#3a312a"></path><path d="m216.550781 91.605469-45.785156-79.304688c-2.90625-5.03125-8.273437-8.128906-14.082031-8.128906h-91.574219c-5.8125 0-11.179687 3.097656-14.082031 8.128906l-13.277344 22.992188-13.386719 23.1875-19.125 33.125c-2.902343 5.027343-2.902343 11.230469 0 16.257812l45.789063 79.304688c2.902344 5.03125 8.269531 8.128906 14.082031 8.128906h91.570313c5.808593 0 11.179687-3.097656 14.082031-8.128906l45.785156-79.304688c2.90625-5.027343 2.90625-11.226562.003906-16.257812zm0 0" fill="#f16c7a"></path><path d="m219.144531 90.105469-45.785156-79.304688c-3.429687-5.941406-9.820313-9.628906-16.679687-9.628906h-91.570313c-6.859375 0-13.25 3.691406-16.679687 9.628906l-13.277344 22.992188c-.832032 1.4375-.335938 3.269531 1.097656 4.097656 1.4375.832031 3.269531.34375 4.097656-1.097656l13.277344-22.992188c2.359375-4.089843 6.761719-6.628906 11.484375-6.628906h91.570313c4.722656 0 9.125 2.542969 11.484374 6.628906l45.785157 79.304688c2.359375 4.089843 2.359375 9.171875 0 13.261719l-45.785157 79.300781c-2.363281 4.089843-6.761718 6.632812-11.484374 6.632812h-91.570313c-4.722656 0-9.125-2.542969-11.484375-6.632812l-45.785156-79.304688c-2.363282-4.089843-2.363282-9.171875 0-13.257812l19.121094-33.128907c.832031-1.433593.335937-3.269531-1.097657-4.097656-1.433593-.828125-3.265625-.335937-4.097656 1.097656l-19.125 33.128907c-3.429687 5.9375-3.429687 13.316406 0 19.257812l45.789063 79.304688c3.429687 5.941406 9.820312 9.628906 16.679687 9.628906h91.570313c6.859374 0 13.253906-3.6875 16.679687-9.628906l45.789063-79.304688c3.429687-5.9375 3.429687-13.320312-.003907-19.257812zm0 0" fill="#3a312a"></path><path d="m69.269531 48.574219v20.570312h29.089844v87.765625h24.59375v-87.765625h29.574219v-20.570312zm0 0" fill="#87796f"></path><path d="m152.527344 45.574219h-83.257813c-1.660156 0-3 1.34375-3 3v20.570312c0 1.65625 1.339844 3 3 3h26.089844v84.765625c0 1.652344 1.34375 3 3 3h24.59375c1.65625 0 3-1.347656 3-3v-84.765625h26.574219c1.660156 0 3-1.34375 3-3v-20.570312c0-1.65625-1.339844-3-3-3zm-3 20.570312h-26.574219c-1.65625 0-3 1.347657-3 3v84.765625h-18.59375v-84.765625c0-1.652343-1.339844-3-3-3h-26.089844v-14.570312h77.257813zm0 0" fill="#3a312a"></path><path d="m423.601562 219.632812-45.78125-79.320312c-2.359374-4.078125-6.761718-6.617188-11.480468-6.617188h-23.339844c4.71875 0 9.121094 2.539063 11.480469 6.617188l45.78125 79.320312c2.359375 4.082032 2.359375 9.160157 0 13.261719l-45.78125 79.300781c-2.359375 4.078126-6.761719 6.617188-11.480469 6.617188h23.339844c4.71875 0 9.121094-2.539062 11.480468-6.617188l45.78125-79.300781c2.359376-4.101562 2.359376-9.179687 0-13.261719zm0 0" fill="#b9bc39"></path><path d="m213.960938 346.933594-45.800782-79.300782c-2.359375-4.078124-6.761718-6.617187-11.480468-6.617187h-23.339844c4.742187 0 9.140625 2.539063 11.5 6.617187l45.78125 79.300782c2.359375 4.101562 2.359375 9.179687 0 13.28125l-45.78125 79.300781c-2.378906 4.078125-6.78125 6.617187-11.5 6.617187h23.339844c4.71875 0 9.121093-2.539062 11.480468-6.617187l45.800782-79.300781c2.359374-4.101563 2.359374-9.179688 0-13.28125zm0 0" fill="#68a8bc"></path><path d="m213.960938 93.09375-45.800782-79.300781c-2.359375-4.078125-6.761718-6.617188-11.480468-6.617188h-23.339844c4.71875 0 9.121094 2.539063 11.5 6.617188l45.78125 79.300781c2.359375 4.101562 2.359375 9.179688 0 13.28125l-45.78125 79.300781c-2.359375 4.078125-6.757813 6.617188-11.5 6.617188h23.339844c4.71875 0 9.121093-2.539063 11.480468-6.617188l45.800782-79.300781c2.359374-4.101562 2.359374-9.179688 0-13.28125zm0 0" fill="#ce4e61"></path></svg>